# xmcd
#
# Track frame offsets:
#	150
#	10864
#	22436
#	33391
#	44114
#	56660
#	68198
#	79841
#	91608
#	101478
#	111153
#	120088
#	132451
#	144988
#	157223
#	169740
#	181539
#	192615
#	202542
#	212563
#	224245
#	231589
#	244338
#	255997
#	267730
#	281109
#	294550
#	307245
#	317896
#	330334
#	342220
#	355232
#
# Disc length: 4873 seconds
#
# Revision: 0
# Processed by: cddbd v1.5.2PL0 Copyright (c) Steve Scherf et al.
# Submitted via: audiograbber 1.83.01
#
DISCID=f3130720
DTITLE=George Jones - Birth Of A Legend - Disc 1
DYEAR=2016
DGENRE=Country
TTITLE0=No Money In This Deal
TTITLE1=No Money In This Deal (alt)
TTITLE2=For Sale Or For Lease (take 1)
TTITLE3=For Sale Or For Lease (take 2)
TTITLE4=Play It Cool Man - Play It Cool
TTITLE5=You're In My Heart
TTITLE6=If You Were Mine
TTITLE7=Wrong About You
TTITLE8=You All Goodnight
TTITLE9=Hold Everything
TTITLE10=Hold Everything (alt)
TTITLE11=Heartbroken Me
TTITLE12=Heartbroken Me (2)
TTITLE13=Let Him Know
TTITLE14=My Sweet Imogene
TTITLE15=What's Wrong With You
TTITLE16=What's Wrong With You (alt)
TTITLE17=Painless Heart
TTITLE18=Still Hurtin'
TTITLE19=Settle Down
TTITLE20=Mexican Boogie (Boogie Woogie Mexican Boy)
TTITLE21=Why Baby Why
TTITLE22=Mexican Boogie (Boogie Woogie Mexican Boy)
TTITLE23=What Am I Worth
TTITLE24=Seasons Of My Heart
TTITLE25=Seasons Of My Heart (alt)
TTITLE26=What Am I Worth (remake)
TTITLE27=It's OK
TTITLE28=Your Heart
TTITLE29=Mexican Boogie (Boogie Woogie Mexican Boy) (alt)
TTITLE30=You Never Thought
TTITLE31=I'm Ragged But I'm Right
EXTD=
EXTT0=
EXTT1=
EXTT2=
EXTT3=
EXTT4=
EXTT5=
EXTT6=
EXTT7=
EXTT8=
EXTT9=
EXTT10=
EXTT11=
EXTT12=
EXTT13=
EXTT14=
EXTT15=
EXTT16=
EXTT17=
EXTT18=
EXTT19=
EXTT20=
EXTT21=
EXTT22=
EXTT23=
EXTT24=
EXTT25=
EXTT26=
EXTT27=
EXTT28=
EXTT29=
EXTT30=
EXTT31=
PLAYORDER=
